<svg xmlns="http://www.w3.org/2000/svg" width="1600" height="900" viewBox="0 0 1600 900">
  <defs>
    <radialGradient id="glow" cx="80%" cy="0%" r="70%">
      <stop offset="0%" stop-color="#4C8DFF" stop-opacity="0.16"/>
      <stop offset="100%" stop-color="#4C8DFF" stop-opacity="0"/>
    </radialGradient>
  </defs>
  <rect width="1600" height="900" fill="#0C0E16"/>
  <rect width="1600" height="900" fill="url(#glow)"/>
<text font-size="22" font-family="ui-monospace, SFMono-Regular, Menlo, Monaco, Consolas, monospace" fill="#4C8DFF" letter-spacing="5"><tspan x="96" y="156">SMITHERS · V0.28.0</tspan></text>
<text font-size="60" font-family="system-ui, -apple-system, 'Segoe UI', Roboto, Helvetica, Arial, sans-serif" fill="#E7E9EE" font-weight="800"><tspan x="96" y="250">Authority follows the artifact.</tspan></text>
<text font-size="30" font-family="system-ui, -apple-system, 'Segoe UI', Roboto, Helvetica, Arial, sans-serif" fill="#9CA3B4"><tspan x="96" y="304">ctx.prove() records the exact row. &lt;Task bind&gt; verifies it at schedule time.</tspan></text>

  <g font-family="ui-monospace, SFMono-Regular, Menlo, Monaco, Consolas, monospace">
    <rect x="96" y="388" width="372" height="190" rx="14" fill="#141826" stroke="#31558E"/>
    <text x="126" y="430" font-size="18" letter-spacing="2" fill="#4C8DFF">UPSTREAM EVIDENCE</text>
    <text x="126" y="482" font-size="27" fill="#E7E9EE">review · approved</text>
    <text x="126" y="530" font-size="23" fill="#9CA3B4">sha256 98b4…f201</text>

    <line x1="468" y1="483" x2="574" y2="483" stroke="#4C8DFF" stroke-width="3"/>
    <polygon points="574,483 554,471 554,495" fill="#4C8DFF"/>

    <rect x="578" y="388" width="372" height="190" rx="14" fill="#182641" stroke="#31558E"/>
    <text x="608" y="430" font-size="18" letter-spacing="2" fill="#4C8DFF">BOUND TASK</text>
    <text x="608" y="482" font-size="27" fill="#E7E9EE">publish</text>
    <text x="608" y="530" font-size="23" fill="#9CA3B4">bind={proof}</text>

    <line x1="950" y1="450" x2="1050" y2="400" stroke="#4C8DFF" stroke-width="3"/>
    <polygon points="1050,400 1028,399 1038,419" fill="#4C8DFF"/>
    <line x1="950" y1="516" x2="1050" y2="620" stroke="#FBBF24" stroke-width="3"/>
    <polygon points="1050,620 1042,599 1026,614" fill="#FBBF24"/>

    <rect x="1054" y="340" width="450" height="144" rx="14" fill="#14231F" stroke="#2E755C"/>
    <text x="1084" y="383" font-size="18" letter-spacing="2" fill="#34D399">DIGEST MATCHES</text>
    <text x="1084" y="438" font-size="29" fill="#E7E9EE">SCHEDULE</text>

    <rect x="1054" y="554" width="450" height="144" rx="14" fill="#292317" stroke="#8A6A2A"/>
    <text x="1084" y="597" font-size="18" letter-spacing="2" fill="#FBBF24">EVIDENCE CHANGED</text>
    <text x="1084" y="652" font-size="29" fill="#E7E9EE">BOUND_STALE</text>
  </g>

  <rect x="96" y="812" width="16" height="16" rx="4" fill="#4C8DFF"/>
  <text x="124" y="826" font-size="26" font-family="system-ui, -apple-system, 'Segoe UI', Roboto, Helvetica, Arial, sans-serif" fill="#6B7280">smithers.sh</text>
  <text x="1504" y="826" font-size="26" font-family="ui-monospace, SFMono-Regular, Menlo, Monaco, Consolas, monospace" fill="#6B7280" text-anchor="end">0.28.0</text>
</svg>
